<svg width="280" height="88" viewBox="0 0 280 88" fill="none" xmlns="http://www.w3.org/2000/svg">
<path d="M24.9614 -2.36582e-05H39.6606L52.1298 30.4056H52.7053L65.1745 -2.36582e-05H79.8737V49.1094H68.3157V18.9435H67.9081L56.1103 48.7976H48.7247L36.927 18.7757H36.5193V49.1094H24.9614V-2.36582e-05ZM87.2773 49.1094V-2.36582e-05H107.564C111.241 -2.36582e-05 114.414 0.663401 117.083 1.99025C119.769 3.30111 121.839 5.18748 123.294 7.64934C124.749 10.0952 125.476 12.9967 125.476 16.3538C125.476 19.7588 124.733 22.6523 123.246 25.0343C121.759 27.4002 119.649 29.2066 116.916 30.4536C114.182 31.6845 110.945 32.3 107.204 32.3H94.3751V22.9481H104.998C106.788 22.9481 108.283 22.7163 109.482 22.2527C110.697 21.7731 111.616 21.0537 112.24 20.0945C112.863 19.1194 113.175 17.8725 113.175 16.3538C113.175 14.8351 112.863 13.5802 112.24 12.5891C111.616 11.5819 110.697 10.8306 109.482 10.335C108.267 9.82346 106.772 9.56768 104.998 9.56768H99.147V49.1094H87.2773ZM114.925 26.6648L127.155 49.1094H114.206L102.216 26.6648H114.925ZM131.987 49.1094V-2.36582e-05H152.273C155.95 -2.36582e-05 159.123 0.663401 161.793 1.99025C164.478 3.30111 166.549 5.18748 168.003 7.64934C169.458 10.0952 170.185 12.9967 170.185 16.3538C170.185 19.7588 169.442 22.6523 167.955 25.0343C166.469 27.4002 164.358 29.2066 161.625 30.4536C158.891 31.6845 155.654 32.3 151.913 32.3H139.084V22.9481H149.707C151.498 22.9481 152.992 22.7163 154.191 22.2527C155.406 21.7731 156.325 21.0537 156.949 20.0945C157.572 19.1194 157.884 17.8725 157.884 16.3538C157.884 14.8351 157.572 13.5802 156.949 12.5891C156.325 11.5819 155.406 10.8306 154.191 10.335C152.976 9.82346 151.482 9.56768 149.707 9.56768H143.856V49.1094H131.987ZM159.635 26.6648L171.864 49.1094H158.915L146.926 26.6648H159.635ZM176.696 49.1094V-2.36582e-05H210.938V9.63961H188.565V19.7109H209.188V29.3745H188.565V39.4697H210.938V49.1094H176.696ZM218.372 49.1094V-2.36582e-05H238.658C242.335 -2.36582e-05 245.508 0.719353 248.178 2.15811C250.863 3.58087 252.934 5.57114 254.388 8.12892C255.843 10.6707 256.57 13.6282 256.57 17.0012C256.57 20.3903 255.827 23.3557 254.34 25.8975C252.87 28.4233 250.767 30.3816 248.034 31.7724C245.3 33.1632 242.055 33.8586 238.298 33.8586H225.781V24.5067H236.092C237.883 24.5067 239.377 24.195 240.576 23.5715C241.791 22.9481 242.71 22.0768 243.334 20.9578C243.957 19.8228 244.269 18.5039 244.269 17.0012C244.269 15.4825 243.957 14.1717 243.334 13.0686C242.71 11.9496 241.791 11.0864 240.576 10.4789C239.361 9.87141 237.867 9.56768 236.092 9.56768H230.241V49.1094H218.372Z" fill="white"/>
<path d="M54.1406 80.7534L48.5455 60.2912H51.0633L55.3396 76.9567H55.5394L59.8957 60.2912H62.6932L67.0495 76.9567H67.2493L71.5256 60.2912H74.0434L68.4482 80.7534H65.8905L61.3744 64.4476H61.2145L56.6984 80.7534H54.1406ZM81.8166 81.0731C80.3379 81.0731 79.0624 80.7468 77.99 80.094C76.9242 79.4346 76.1016 78.5154 75.5221 77.3364C74.9493 76.1507 74.6628 74.7719 74.6628 73.2C74.6628 71.628 74.9493 70.2425 75.5221 69.0436C76.1016 67.838 76.9076 66.8988 77.94 66.226C78.9791 65.5466 80.1914 65.2069 81.5768 65.2069C82.3762 65.2069 83.1655 65.3401 83.9448 65.6066C84.7241 65.873 85.4335 66.306 86.0729 66.9054C86.7124 67.4983 87.2219 68.2842 87.6016 69.2634C87.9813 70.2425 88.1711 71.4482 88.1711 72.8802V73.8794H76.3414V71.8411H85.7732C85.7732 70.9752 85.6 70.2026 85.2537 69.5232C84.9139 68.8437 84.4277 68.3075 83.7949 67.9146C83.1688 67.5216 82.4294 67.3251 81.5768 67.3251C80.6377 67.3251 79.825 67.5582 79.139 68.0245C78.4595 68.4841 77.9367 69.0835 77.5703 69.8229C77.204 70.5623 77.0208 71.3549 77.0208 72.2008V73.5597C77.0208 74.7187 77.2206 75.7011 77.6203 76.5071C78.0266 77.3064 78.5894 77.9159 79.3088 78.3355C80.0282 78.7485 80.8641 78.955 81.8166 78.955C82.4361 78.955 82.9956 78.8684 83.4952 78.6952C84.0014 78.5154 84.4377 78.2489 84.804 77.8959C85.1704 77.5362 85.4535 77.0899 85.6533 76.5571L87.9313 77.1965C87.6915 77.9692 87.2886 78.6486 86.7224 79.2347C86.1562 79.8142 85.4568 80.2672 84.6242 80.5936C83.7916 80.9133 82.8557 81.0731 81.8166 81.0731ZM92.0777 80.7534V60.2912H94.4357V67.8446H94.6355C94.8087 67.5782 95.0485 67.2385 95.3549 66.8255C95.668 66.4059 96.1142 66.0329 96.6937 65.7065C97.2799 65.3734 98.0725 65.2069 99.0717 65.2069C100.364 65.2069 101.503 65.53 102.489 66.1761C103.475 66.8222 104.244 67.738 104.797 68.9237C105.35 70.1093 105.626 71.5081 105.626 73.12C105.626 74.7453 105.35 76.1541 104.797 77.3464C104.244 78.532 103.478 79.4512 102.499 80.104C101.52 80.7501 100.391 81.0731 99.1116 81.0731C98.1258 81.0731 97.3365 80.9099 96.7437 80.5836C96.1509 80.2505 95.6946 79.8742 95.3749 79.4545C95.0552 79.0282 94.8087 78.6752 94.6355 78.3955H94.3558V80.7534H92.0777ZM94.3957 73.0801C94.3957 74.2391 94.5656 75.2615 94.9053 76.1474C95.245 77.0267 95.7412 77.7161 96.394 78.2156C97.0468 78.7085 97.8461 78.955 98.7919 78.955C99.7777 78.955 100.6 78.6952 101.26 78.1757C101.926 77.6494 102.425 76.9434 102.758 76.0575C103.098 75.1649 103.268 74.1725 103.268 73.0801C103.268 72.001 103.102 71.0285 102.768 70.1626C102.442 69.29 101.946 68.6006 101.28 68.0944C100.62 67.5815 99.791 67.3251 98.7919 67.3251C97.8327 67.3251 97.0268 67.5682 96.374 68.0544C95.7212 68.534 95.2283 69.2068 94.8953 70.0727C94.5622 70.9319 94.3957 71.9344 94.3957 73.0801ZM123.78 80.7534H117.466V60.2912H124.06C126.045 60.2912 127.743 60.7008 129.156 61.5201C130.568 62.3327 131.65 63.5017 132.403 65.0271C133.155 66.5457 133.532 68.3642 133.532 70.4823C133.532 72.6138 133.152 74.4489 132.393 75.9876C131.633 77.5196 130.528 78.6985 129.076 79.5245C127.624 80.3438 125.858 80.7534 123.78 80.7534ZM119.944 78.5553H123.62C125.312 78.5553 126.714 78.2289 127.827 77.5762C128.939 76.9234 129.768 75.9942 130.315 74.7886C130.861 73.583 131.134 72.1476 131.134 70.4823C131.134 68.8304 130.864 67.4083 130.325 66.216C129.785 65.0171 128.979 64.0979 127.907 63.4584C126.834 62.8123 125.499 62.4893 123.9 62.4893H119.944V78.5553ZM143.803 81.0731C142.324 81.0731 141.049 80.7468 139.976 80.094C138.91 79.4346 138.088 78.5154 137.508 77.3364C136.935 76.1507 136.649 74.7719 136.649 73.2C136.649 71.628 136.935 70.2425 137.508 69.0436C138.088 67.838 138.894 66.8988 139.926 66.226C140.965 65.5466 142.178 65.2069 143.563 65.2069C144.362 65.2069 145.152 65.3401 145.931 65.6066C146.71 65.873 147.42 66.306 148.059 66.9054C148.699 67.4983 149.208 68.2842 149.588 69.2634C149.968 70.2425 150.157 71.4482 150.157 72.8802V73.8794H138.328V71.8411H147.759C147.759 70.9752 147.586 70.2026 147.24 69.5232C146.9 68.8437 146.414 68.3075 145.781 67.9146C145.155 67.5216 144.416 67.3251 143.563 67.3251C142.624 67.3251 141.811 67.5582 141.125 68.0245C140.446 68.4841 139.923 69.0835 139.557 69.8229C139.19 70.5623 139.007 71.3549 139.007 72.2008V73.5597C139.007 74.7187 139.207 75.7011 139.607 76.5071C140.013 77.3064 140.576 77.9159 141.295 78.3355C142.014 78.7485 142.85 78.955 143.803 78.955C144.422 78.955 144.982 78.8684 145.481 78.6952C145.988 78.5154 146.424 78.2489 146.79 77.8959C147.157 77.5362 147.44 77.0899 147.64 76.5571L149.918 77.1965C149.678 77.9692 149.275 78.6486 148.709 79.2347C148.142 79.8142 147.443 80.2672 146.61 80.5936C145.778 80.9133 144.842 81.0731 143.803 81.0731ZM164.615 68.8437L162.497 69.4432C162.363 69.0902 162.167 68.7472 161.907 68.4141C161.654 68.0744 161.308 67.7947 160.868 67.5749C160.428 67.355 159.866 67.2451 159.18 67.2451C158.24 67.2451 157.458 67.4616 156.832 67.8946C156.212 68.3209 155.902 68.8637 155.902 69.5232C155.902 70.1093 156.116 70.5722 156.542 70.912C156.968 71.2517 157.634 71.5347 158.54 71.7612L160.818 72.3207C162.19 72.6538 163.213 73.1633 163.885 73.8494C164.558 74.5288 164.895 75.4047 164.895 76.4771C164.895 77.3564 164.641 78.1423 164.135 78.8351C163.636 79.5278 162.936 80.074 162.037 80.4737C161.138 80.8733 160.092 81.0731 158.9 81.0731C157.334 81.0731 156.039 80.7334 155.013 80.054C153.987 79.3746 153.338 78.3821 153.065 77.0766L155.303 76.5171C155.516 77.343 155.919 77.9625 156.512 78.3755C157.111 78.7885 157.894 78.9949 158.86 78.9949C159.959 78.9949 160.831 78.7618 161.478 78.2956C162.13 77.8226 162.457 77.2565 162.457 76.597C162.457 76.0642 162.27 75.6179 161.897 75.2582C161.524 74.8918 160.951 74.6187 160.179 74.4389L157.621 73.8394C156.215 73.5064 155.183 72.9902 154.524 72.2908C153.871 71.5847 153.544 70.7021 153.544 69.6431C153.544 68.7771 153.788 68.0111 154.274 67.3451C154.767 66.679 155.436 66.1561 156.282 65.7764C157.135 65.3967 158.1 65.2069 159.18 65.2069C160.698 65.2069 161.891 65.5399 162.756 66.206C163.629 66.8721 164.248 67.7514 164.615 68.8437ZM168.444 80.7534V65.4067H170.802V80.7534H168.444ZM169.643 62.849C169.183 62.849 168.787 62.6924 168.454 62.3794C168.128 62.0663 167.964 61.69 167.964 61.2503C167.964 60.8107 168.128 60.4344 168.454 60.1213C168.787 59.8083 169.183 59.6517 169.643 59.6517C170.103 59.6517 170.496 59.8083 170.822 60.1213C171.155 60.4344 171.321 60.8107 171.321 61.2503C171.321 61.69 171.155 62.0663 170.822 62.3794C170.496 62.6924 170.103 62.849 169.643 62.849ZM181.315 86.8281C180.176 86.8281 179.197 86.6816 178.378 86.3885C177.559 86.1021 176.876 85.7224 176.33 85.2495C175.79 84.7833 175.36 84.2837 175.041 83.7508L176.919 82.432C177.132 82.7117 177.402 83.0314 177.728 83.3911C178.055 83.7575 178.501 84.0739 179.067 84.3403C179.64 84.6134 180.389 84.75 181.315 84.75C182.554 84.75 183.577 84.4502 184.383 83.8507C185.189 83.2513 185.592 82.3121 185.592 81.0332V77.9159H185.392C185.219 78.1956 184.972 78.542 184.652 78.955C184.339 79.3613 183.886 79.7243 183.294 80.044C182.707 80.3571 181.915 80.5136 180.916 80.5136C179.677 80.5136 178.564 80.2205 177.579 79.6344C176.599 79.0482 175.823 78.1956 175.251 77.0766C174.684 75.9576 174.401 74.5988 174.401 73.0001C174.401 71.4282 174.678 70.0594 175.231 68.8937C175.783 67.7214 176.553 66.8155 177.539 66.1761C178.524 65.53 179.663 65.2069 180.956 65.2069C181.955 65.2069 182.747 65.3734 183.334 65.7065C183.926 66.0329 184.379 66.4059 184.692 66.8255C185.012 67.2385 185.259 67.5782 185.432 67.8446H185.672V65.4067H187.95V81.193C187.95 82.5119 187.65 83.5843 187.05 84.4102C186.458 85.2429 185.658 85.8523 184.652 86.2387C183.653 86.6317 182.541 86.8281 181.315 86.8281ZM181.235 78.3955C182.181 78.3955 182.981 78.179 183.633 77.746C184.286 77.3131 184.782 76.6903 185.122 75.8776C185.462 75.065 185.632 74.0925 185.632 72.9602C185.632 71.8545 185.465 70.8787 185.132 70.0327C184.799 69.1868 184.306 68.524 183.653 68.0444C183.001 67.5649 182.195 67.3251 181.235 67.3251C180.236 67.3251 179.404 67.5782 178.738 68.0844C178.078 68.5906 177.582 69.27 177.249 70.1226C176.922 70.9752 176.759 71.9211 176.759 72.9602C176.759 74.0259 176.926 74.9684 177.259 75.7877C177.599 76.6004 178.098 77.2398 178.758 77.7061C179.424 78.1657 180.25 78.3955 181.235 78.3955ZM194.624 71.5214V80.7534H192.266V65.4067H194.544V67.8047H194.744C195.103 67.0253 195.65 66.3992 196.382 65.9263C197.115 65.4467 198.061 65.2069 199.22 65.2069C200.259 65.2069 201.168 65.4201 201.947 65.8463C202.727 66.266 203.333 66.9054 203.766 67.7647C204.199 68.6173 204.415 69.6963 204.415 71.0019V80.7534H202.057V71.1617C202.057 69.9561 201.744 69.0169 201.118 68.3442C200.492 67.6648 199.633 67.3251 198.54 67.3251C197.788 67.3251 197.115 67.4883 196.522 67.8146C195.936 68.141 195.473 68.6173 195.133 69.2434C194.794 69.8695 194.624 70.6289 194.624 71.5214ZM215.158 81.0731C213.68 81.0731 212.404 80.7468 211.332 80.094C210.266 79.4346 209.443 78.5154 208.864 77.3364C208.291 76.1507 208.005 74.7719 208.005 73.2C208.005 71.628 208.291 70.2425 208.864 69.0436C209.443 67.838 210.249 66.8988 211.282 66.226C212.321 65.5466 213.533 65.2069 214.919 65.2069C215.718 65.2069 216.507 65.3401 217.287 65.6066C218.066 65.873 218.775 66.306 219.415 66.9054C220.054 67.4983 220.564 68.2842 220.943 69.2634C221.323 70.2425 221.513 71.4482 221.513 72.8802V73.8794H209.683V71.8411H219.115C219.115 70.9752 218.942 70.2026 218.595 69.5232C218.256 68.8437 217.77 68.3075 217.137 67.9146C216.511 67.5216 215.771 67.3251 214.919 67.3251C213.979 67.3251 213.167 67.5582 212.481 68.0245C211.801 68.4841 211.278 69.0835 210.912 69.8229C210.546 70.5623 210.363 71.3549 210.363 72.2008V73.5597C210.363 74.7187 210.562 75.7011 210.962 76.5071C211.368 77.3064 211.931 77.9159 212.651 78.3355C213.37 78.7485 214.206 78.955 215.158 78.955C215.778 78.955 216.337 78.8684 216.837 78.6952C217.343 78.5154 217.78 78.2489 218.146 77.8959C218.512 77.5362 218.795 77.0899 218.995 76.5571L221.273 77.1965C221.033 77.9692 220.63 78.6486 220.064 79.2347C219.498 79.8142 218.799 80.2672 217.966 80.5936C217.133 80.9133 216.198 81.0731 215.158 81.0731ZM225.1 80.7534V65.4067H227.378V67.7247H227.538C227.817 66.9654 228.324 66.3492 229.056 65.8763C229.789 65.4034 230.615 65.1669 231.534 65.1669C231.707 65.1669 231.924 65.1703 232.184 65.1769C232.443 65.1836 232.64 65.1936 232.773 65.2069V67.6048C232.693 67.5848 232.51 67.5549 232.224 67.5149C231.944 67.4683 231.647 67.445 231.334 67.445C230.588 67.445 229.922 67.6015 229.336 67.9146C228.757 68.221 228.297 68.6473 227.957 69.1934C227.624 69.733 227.458 70.3491 227.458 71.0418V80.7534H225.1Z" fill="white"/>
</svg>
