<svg width="48" height="48" viewBox="0 0 48 48" fill="none" xmlns="http://www.w3.org/2000/svg">
<path d="M17.7525 35.505C12.7909 35.505 8.59221 33.7862 5.15642 30.3486C1.72063 26.911 0.00182221 22.7123 1.44505e-06 17.7525C-0.00181932 12.7927 1.71699 8.59403 5.15642 5.15642C8.59585 1.71881 12.7945 0 17.7525 0C22.7104 0 26.91 1.71881 30.3513 5.15642C33.7925 8.59403 35.5104 12.7927 35.505 17.7525C35.505 19.7553 35.1863 21.6444 34.5491 23.4196C33.9118 25.1949 33.0469 26.7653 31.9545 28.1309L47.2489 43.4253C47.7496 43.926 48 44.5633 48 45.3371C48 46.111 47.7496 46.7482 47.2489 47.2489C46.7482 47.7496 46.111 48 45.3371 48C44.5633 48 43.926 47.7496 43.4253 47.2489L28.1309 31.9545C26.7653 33.0469 25.1949 33.9118 23.4196 34.5491C21.6444 35.1863 19.7553 35.505 17.7525 35.505ZM17.7525 30.0427C21.1664 30.0427 24.0687 28.8482 26.4594 26.4594C28.8501 24.0706 30.0445 21.1682 30.0427 17.7525C30.0409 14.3367 28.8464 11.4353 26.4594 9.04831C24.0724 6.66128 21.1701 5.46595 17.7525 5.4623C14.3349 5.45866 11.4335 6.654 9.04831 9.04831C6.6631 11.4426 5.46777 14.344 5.46231 17.7525C5.45684 21.161 6.65218 24.0633 9.04831 26.4594C11.4444 28.8555 14.3458 30.05 17.7525 30.0427Z" fill="white"/>
</svg>
